# Blender 3.6.4
# www.blender.org
mtllib VasoWisky.mtl
o VasoWisky
v -0.113630 0.000000 0.113630
v 0.113630 0.000000 0.113630
v -0.113630 0.000000 -0.113630
v 0.113630 0.000000 -0.113630
v -0.146343 0.000000 0.000000
v 0.000000 0.000000 0.146343
v 0.146343 0.000000 0.000000
v 0.000000 0.000000 -0.146343
v -0.146343 0.335759 0.000000
v -0.113630 0.335759 0.113630
v 0.000000 0.335759 0.146343
v 0.113630 0.335759 0.113630
v 0.146343 0.335759 0.000000
v 0.113630 0.335759 -0.113630
v 0.000000 0.335759 -0.146343
v -0.113630 0.335759 -0.113630
v -0.000000 0.335759 -0.133689
v -0.103805 0.335759 -0.103805
v 0.133689 0.335759 0.000000
v 0.103805 0.335759 -0.103805
v -0.000000 0.335759 0.133689
v 0.103805 0.335759 0.103805
v -0.133689 0.335759 0.000000
v -0.103805 0.335759 0.103805
v -0.000000 0.039595 -0.133689
v -0.103805 0.039595 -0.103805
v 0.133689 0.039595 0.000000
v 0.103805 0.039595 -0.103805
v -0.000000 0.039595 0.133689
v 0.103805 0.039595 0.103805
v -0.133689 0.039595 0.000000
v -0.103805 0.039595 0.103805
vn -0.7601 -0.6498 -0.0000
vn -0.5588 -0.6127 0.5588
vn -0.5588 0.6127 0.5588
vn -0.7601 0.6498 -0.0000
vn 0.7601 -0.6498 -0.0000
vn 0.5588 -0.6127 -0.5588
vn 0.5588 0.6127 -0.5588
vn 0.7601 0.6498 -0.0000
vn -0.0000 0.6498 -0.7601
vn -0.0000 0.7750 0.6320
vn -0.3904 0.8338 0.3904
vn -0.5588 -0.6127 -0.5588
vn -0.5588 0.6127 -0.5588
vn 0.5588 -0.6127 0.5588
vn -0.0000 -0.6498 0.7601
vn -0.0000 -0.6498 -0.7601
vn -0.0000 0.6498 0.7601
vn 0.5588 0.6127 0.5588
vn -0.0000 0.7750 -0.6320
vn -0.3904 0.8338 -0.3904
vn 0.3904 0.8338 -0.3904
vn 0.6320 0.7750 -0.0000
vn -0.6320 0.7750 -0.0000
vn 0.3904 0.8338 0.3904
vt 0.500000 0.000000
vt 0.888234 0.000000
vt 0.888234 1.000000
vt 0.500000 1.000000
vt 0.111766 0.000000
vt 0.111766 1.000000
vt 0.000000 1.000000
vt 0.043232 1.000000
vt 0.145334 1.000000
vt 1.000000 0.000000
vt 0.000000 0.000000
vt 1.000000 1.000000
vt 0.956768 1.000000
vt 0.854666 1.000000
vt 0.854666 0.117928
vt 0.956768 0.117928
vt 0.500000 0.117928
vt 0.145334 0.117928
vt 0.043232 0.117928
s 1
usemtl GlassTraslucent
f 5/1/1 1/2/2 10/3/3 9/4/4
f 7/1/5 4/5/6 14/6/7 13/4/8
f 14/6/7 15/7/9 17/8/10 20/9/11
f 3/5/12 5/1/1 9/4/4 16/6/13
f 7/1/5 2/2/14 6/10/15 1/2/2 5/1/1 3/5/12 8/11/16 4/5/6
f 4/5/6 8/11/16 15/7/9 14/6/7
f 1/2/2 6/10/15 11/12/17 10/3/3
f 8/11/16 3/5/12 16/6/13 15/7/9
f 6/10/15 2/2/14 12/3/18 11/12/17
f 2/2/14 7/1/5 13/4/8 12/3/18
f 21/13/19 22/14/20 30/15/13 29/16/9
f 10/3/3 11/12/17 21/13/19 24/14/21
f 9/4/4 10/3/3 24/14/21 23/4/22
f 13/4/8 14/6/7 20/9/11 19/4/23
f 12/3/18 13/4/8 19/4/23 22/14/20
f 16/6/13 9/4/4 23/4/22 18/9/24
f 11/12/17 12/3/18 22/14/20 21/13/19
f 15/7/9 16/6/13 18/9/24 17/8/10
f 27/17/4 28/18/3 25/19/17 26/18/18 31/17/8 32/15/7 29/16/9 30/15/13
f 17/8/10 18/9/24 26/18/18 25/19/17
f 20/9/11 17/8/10 25/19/17 28/18/3
f 24/14/21 21/13/19 29/16/9 32/15/7
f 23/4/22 24/14/21 32/15/7 31/17/8
f 19/4/23 20/9/11 28/18/3 27/17/4
f 22/14/20 19/4/23 27/17/4 30/15/13
f 18/9/24 23/4/22 31/17/8 26/18/18
