# Blender 3.6.4
# www.blender.org
mtllib CopaMartini.mtl
o CopaMartini
v 0.000001 -0.001782 -0.118673
v 0.000001 0.031124 -0.011659
v 0.069756 -0.001782 -0.096008
v 0.006855 0.031124 -0.009432
v 0.112867 -0.001782 -0.036671
v 0.011091 0.031124 -0.003602
v 0.112867 -0.001782 0.036674
v 0.011091 0.031124 0.003605
v 0.069756 -0.001782 0.096011
v 0.006855 0.031124 0.009435
v 0.000001 -0.001782 0.118676
v 0.000001 0.031124 0.011662
v -0.069754 -0.001782 0.096011
v -0.006853 0.031124 0.009435
v -0.112865 -0.001782 0.036674
v -0.011089 0.031124 0.003605
v -0.112865 -0.001782 -0.036671
v -0.011089 0.031124 -0.003602
v -0.069754 -0.001782 -0.096008
v -0.006853 0.031124 -0.009432
v 0.006855 0.297594 -0.009432
v 0.000001 0.297594 -0.011659
v 0.011091 0.297594 -0.003602
v 0.011091 0.297594 0.003605
v 0.006855 0.297594 0.009435
v 0.000001 0.297594 0.011662
v -0.006853 0.297594 0.009435
v -0.011089 0.297594 0.003605
v -0.011089 0.297594 -0.003602
v -0.006853 0.297594 -0.009432
v 0.131052 0.416095 -0.180376
v 0.000001 0.416095 -0.222957
v 0.212047 0.416095 -0.068896
v 0.212047 0.416095 0.068899
v 0.131052 0.416095 0.180379
v 0.000001 0.416095 0.222960
v -0.131051 0.416095 0.180379
v -0.212046 0.416095 0.068899
v -0.212046 0.416095 -0.068896
v -0.131051 0.416095 -0.180376
v 0.127755 0.416095 -0.175838
v 0.000001 0.416095 -0.217348
v 0.206712 0.416095 -0.067163
v 0.206712 0.416095 0.067166
v 0.127755 0.416095 0.175840
v 0.000001 0.416095 0.217350
v -0.127754 0.416095 0.175840
v -0.206710 0.416095 0.067166
v -0.206710 0.416095 -0.067163
v -0.127754 0.416095 -0.175838
v 0.007919 0.299623 -0.010897
v 0.000001 0.299623 -0.013470
v 0.012813 0.299623 -0.004161
v 0.012813 0.299623 0.004164
v 0.007919 0.299623 0.010900
v 0.000001 0.299623 0.013473
v -0.007918 0.299623 0.010900
v -0.012811 0.299623 0.004164
v -0.012811 0.299623 -0.004161
v -0.007918 0.299623 -0.010897
vn -0.0000 -0.1262 -0.9920
vn -0.0000 0.6572 -0.7537
vn 0.4430 0.6572 -0.6098
vn 0.5831 -0.1262 -0.8025
vn 0.7168 0.6572 -0.2329
vn 0.9434 -0.1262 -0.3065
vn 0.7168 0.6572 0.2329
vn 0.9434 -0.1262 0.3065
vn 0.4430 0.6572 0.6098
vn 0.5831 -0.1262 0.8025
vn -0.0000 0.6572 0.7537
vn -0.0000 -0.1262 0.9920
vn -0.4430 0.6572 0.6098
vn -0.5831 -0.1262 0.8025
vn -0.7168 0.6572 0.2329
vn -0.9434 -0.1262 0.3065
vn -0.7168 0.6572 -0.2329
vn -0.9434 -0.1262 -0.3065
vn 0.4892 -0.5543 0.6733
vn -0.0000 -0.5543 0.8323
vn -0.4430 0.6572 -0.6098
vn -0.5831 -0.1262 -0.8025
vn 0.7916 -0.5543 -0.2572
vn 0.4892 -0.5543 -0.6733
vn 0.5739 0.2159 -0.7899
vn 0.9286 0.2159 -0.3017
vn 0.7916 -0.5543 0.2572
vn -0.0000 -0.5543 -0.8323
vn -0.4892 -0.5543 -0.6733
vn -0.7916 -0.5543 -0.2572
vn -0.7916 -0.5543 0.2572
vn -0.4892 -0.5543 0.6733
vn -0.5739 0.2159 0.7899
vn -0.0000 0.2159 0.9764
vn -0.0000 0.9782 -0.2076
vn 0.1220 0.9782 -0.1679
vn -0.9286 0.2159 -0.3017
vn -0.5739 0.2159 -0.7899
vn 0.9286 0.2159 0.3017
vn -0.0000 0.2159 -0.9764
vn -0.9286 0.2159 0.3017
vn 0.5739 0.2159 0.7899
vn -0.1974 0.9782 -0.0641
vn -0.1974 0.9782 0.0641
vn -0.2883 0.9529 0.0937
vn -0.2883 0.9529 -0.0937
vn 0.1220 0.9782 0.1679
vn -0.0000 0.9782 0.2076
vn 0.1974 0.9782 -0.0641
vn -0.1220 0.9782 -0.1679
vn -0.1220 0.9782 0.1679
vn 0.1974 0.9782 0.0641
vn -0.1782 0.9529 0.2453
vn -0.0000 0.9529 0.3032
vn 0.1782 0.9529 0.2453
vn 0.2883 0.9529 0.0937
vn 0.2883 0.9529 -0.0937
vn 0.1782 0.9529 -0.2453
vn -0.0000 0.9529 -0.3032
vn -0.1782 0.9529 -0.2453
vt 1.000000 0.500000
vt 1.000000 1.000000
vt 0.900000 1.000000
vt 0.900000 0.500000
vt 0.800000 1.000000
vt 0.800000 0.500000
vt 0.700000 1.000000
vt 0.700000 0.500000
vt 0.600000 1.000000
vt 0.600000 0.500000
vt 0.500000 1.000000
vt 0.500000 0.500000
vt 0.400000 1.000000
vt 0.400000 0.500000
vt 0.300000 1.000000
vt 0.300000 0.500000
vt 0.200000 1.000000
vt 0.200000 0.500000
vt 0.100000 1.000000
vt 0.100000 0.500000
vt -0.000000 1.000000
vt -0.000000 0.500000
vt 0.750000 0.490000
vt 0.891068 0.444164
vt 0.978254 0.324164
vt 0.978254 0.175836
vt 0.891068 0.055836
vt 0.750000 0.010000
vt 0.608932 0.055836
vt 0.521746 0.175836
vt 0.521746 0.324164
vt 0.608932 0.444164
vt 0.391068 0.444164
vt 0.250000 0.490000
vt 0.108932 0.444164
vt 0.021746 0.324164
vt 0.021746 0.175836
vt 0.108932 0.055836
vt 0.250000 0.010000
vt 0.391068 0.055836
vt 0.478254 0.175836
vt 0.478254 0.324164
s 1
usemtl GlassTraslucent
f 1/1/1 2/2/2 4/3/3 3/4/4
f 3/4/4 4/3/3 6/5/5 5/6/6
f 5/6/6 6/5/5 8/7/7 7/8/8
f 7/8/8 8/7/7 10/9/9 9/10/10
f 9/10/10 10/9/9 12/11/11 11/12/12
f 11/12/12 12/11/11 14/13/13 13/14/14
f 13/14/14 14/13/13 16/15/15 15/16/16
f 15/16/16 16/15/15 18/17/17 17/18/18
f 12/11/11 10/9/9 25/9/19 26/11/20
f 17/18/18 18/17/17 20/19/21 19/20/22
f 19/20/22 20/19/21 2/21/2 1/22/1
f 1/23/1 3/24/4 5/25/6 7/26/8 9/27/10 11/28/12 13/29/14 15/30/16 17/31/18 19/32/22
f 23/5/23 21/3/24 31/3/25 33/5/26
f 10/9/9 8/7/7 24/7/27 25/9/19
f 4/3/3 2/2/2 22/2/28 21/3/24
f 8/7/7 6/5/5 23/5/23 24/7/27
f 6/5/5 4/3/3 21/3/24 23/5/23
f 2/21/2 20/19/21 30/19/29 22/21/28
f 20/19/21 18/17/17 29/17/30 30/19/29
f 18/17/17 16/15/15 28/15/31 29/17/30
f 16/15/15 14/13/13 27/13/32 28/15/31
f 14/13/13 12/11/11 26/11/20 27/13/32
f 37/13/33 36/11/34 46/11/35 47/13/36
f 30/19/29 29/17/30 39/17/37 40/19/38
f 27/13/32 26/11/20 36/11/34 37/13/33
f 24/7/27 23/5/23 33/5/26 34/7/39
f 22/21/28 30/19/29 40/19/38 32/21/40
f 28/15/31 27/13/32 37/13/33 38/15/41
f 25/9/19 24/7/27 34/7/39 35/9/42
f 21/3/24 22/2/28 32/2/40 31/3/25
f 29/17/30 28/15/31 38/15/41 39/17/37
f 26/11/20 25/9/19 35/9/42 36/11/34
f 44/7/43 43/5/44 53/5/45 54/7/46
f 34/7/39 33/5/26 43/5/44 44/7/43
f 32/21/40 40/19/38 50/19/47 42/21/48
f 38/15/41 37/13/33 47/13/36 48/15/49
f 35/9/42 34/7/39 44/7/43 45/9/50
f 31/3/25 32/2/40 42/2/48 41/3/51
f 39/17/37 38/15/41 48/15/49 49/17/52
f 36/11/34 35/9/42 45/9/50 46/11/35
f 33/5/26 31/3/25 41/3/51 43/5/44
f 40/19/38 39/17/37 49/17/52 50/19/47
f 51/33/53 52/34/54 60/35/55 59/36/56 58/37/57 57/38/58 56/39/59 55/40/60 54/41/46 53/42/45
f 42/21/48 50/19/47 60/19/55 52/21/54
f 48/15/49 47/13/36 57/13/58 58/15/57
f 45/9/50 44/7/43 54/7/46 55/9/60
f 41/3/51 42/2/48 52/2/54 51/3/53
f 49/17/52 48/15/49 58/15/57 59/17/56
f 46/11/35 45/9/50 55/9/60 56/11/59
f 43/5/44 41/3/51 51/3/53 53/5/45
f 50/19/47 49/17/52 59/17/56 60/19/55
f 47/13/36 46/11/35 56/11/59 57/13/58
