# Blender 3.6.4
# www.blender.org
mtllib VasoLargo.mtl
o VasoLargo
v -0.077516 0.000000 0.077516
v 0.077516 0.000000 0.077516
v -0.077516 0.000000 -0.077516
v 0.077516 0.000000 -0.077516
v -0.096943 0.000000 0.000000
v 0.000000 0.000000 0.096943
v 0.096943 0.000000 0.000000
v 0.000000 0.000000 -0.096943
v -0.096943 0.567331 0.000000
v -0.077516 0.567331 0.077516
v 0.000000 0.567331 0.096943
v 0.077516 0.567331 0.077516
v 0.096943 0.567331 0.000000
v 0.077516 0.567331 -0.077516
v 0.000000 0.567331 -0.096943
v -0.077516 0.567331 -0.077516
v -0.089864 0.567331 0.000000
v -0.071855 0.567331 0.071855
v 0.000000 0.567331 0.089864
v 0.071855 0.567331 0.071855
v 0.089864 0.567331 0.000000
v 0.071855 0.567331 -0.071855
v 0.000000 0.567331 -0.089864
v -0.071855 0.567331 -0.071855
v -0.089864 0.036366 0.000000
v -0.071855 0.036366 0.071855
v 0.000000 0.036366 0.089864
v 0.071855 0.036366 0.071855
v 0.089864 0.036366 0.000000
v 0.071855 0.036366 -0.071855
v 0.000000 0.036366 -0.089864
v -0.071855 0.036366 -0.071855
vn 0.7545 -0.6563 -0.0000
vn 0.5616 -0.6077 0.5616
vn -0.0000 -0.6563 0.7545
vn -0.5616 -0.6077 0.5616
vn -0.7545 -0.6563 -0.0000
vn -0.5616 -0.6077 -0.5616
vn -0.0000 -0.6563 -0.7545
vn 0.5616 -0.6077 -0.5616
vn -0.0000 0.6563 -0.7545
vn -0.5616 0.6077 -0.5616
vn 0.3805 0.8429 0.3805
vn -0.0000 0.7661 0.6427
vn -0.5616 0.6077 0.5616
vn -0.7545 0.6563 -0.0000
vn 0.5616 0.6077 -0.5616
vn -0.0000 0.6563 0.7545
vn 0.5616 0.6077 0.5616
vn 0.7545 0.6563 -0.0000
vn -0.3805 0.8429 0.3805
vn -0.3805 0.8429 -0.3805
vn -0.0000 0.7661 -0.6427
vn -0.6427 0.7661 -0.0000
vn 0.6427 0.7661 -0.0000
vn 0.3805 0.8429 -0.3805
vt 0.500000 0.000000
vt 0.899802 0.000000
vt 1.000000 0.000000
vt 0.100199 0.000000
vt 0.000000 0.000000
vt 0.000000 1.000000
vt 0.100199 1.000000
vt 0.129394 1.000000
vt 0.036512 1.000000
vt 0.899802 1.000000
vt 0.500000 1.000000
vt 1.000000 1.000000
vt 0.036512 0.064100
vt 0.129394 0.064100
vt 0.870606 1.000000
vt 0.963489 1.000000
vt 0.500000 0.064100
vt 0.870606 0.064100
vt 0.963489 0.064100
s 1
usemtl GlassTraslucent
f 7/1/1 2/2/2 6/3/3 1/2/4 5/1/5 3/4/6 8/5/7 4/4/8
f 15/6/9 16/7/10 24/8/11 23/9/12
f 5/1/5 1/2/4 10/10/13 9/11/14
f 4/4/8 8/5/7 15/6/9 14/7/15
f 1/2/4 6/3/3 11/12/16 10/10/13
f 8/5/7 3/4/6 16/7/10 15/6/9
f 6/3/3 2/2/2 12/10/17 11/12/16
f 2/2/2 7/1/1 13/11/18 12/10/17
f 3/4/6 5/1/5 9/11/14 16/7/10
f 7/1/1 4/4/8 14/7/15 13/11/18
f 22/8/19 23/9/12 31/13/16 30/14/13
f 11/12/16 12/10/17 20/15/20 19/16/21
f 12/10/17 13/11/18 21/11/22 20/15/20
f 16/7/10 9/11/14 17/11/23 24/8/11
f 13/11/18 14/7/15 22/8/19 21/11/22
f 9/11/14 10/10/13 18/15/24 17/11/23
f 14/7/15 15/6/9 23/9/12 22/8/19
f 10/10/13 11/12/16 19/16/21 18/15/24
f 29/17/14 30/14/13 31/13/16 32/14/17 25/17/18 26/18/15 27/19/9 28/18/10
f 18/15/24 19/16/21 27/19/9 26/18/15
f 23/9/12 24/8/11 32/14/17 31/13/16
f 19/16/21 20/15/20 28/18/10 27/19/9
f 20/15/20 21/11/22 29/17/14 28/18/10
f 24/8/11 17/11/23 25/17/18 32/14/17
f 21/11/22 22/8/19 30/14/13 29/17/14
f 17/11/23 18/15/24 26/18/15 25/17/18
